<?xml version="1.0" encoding="utf-8"?>
<!-- Generator: Adobe Illustrator 16.0.0, SVG Export Plug-In . SVG Version: 6.00 Build 0)  -->
<!DOCTYPE svg PUBLIC "-//W3C//DTD SVG 1.1//EN" "http://www.w3.org/Graphics/SVG/1.1/DTD/svg11.dtd" [
	<!ENTITY ns_flows "http://ns.adobe.com/Flows/1.0/">
	<!ENTITY ns_extend "http://ns.adobe.com/Extensibility/1.0/">
	<!ENTITY ns_ai "http://ns.adobe.com/AdobeIllustrator/10.0/">
	<!ENTITY ns_graphs "http://ns.adobe.com/Graphs/1.0/">
]>
<svg version="1.1" id="Layer_1" xmlns:x="&ns_extend;" xmlns:i="&ns_ai;" xmlns:graph="&ns_graphs;"
	 xmlns="http://www.w3.org/2000/svg" xmlns:xlink="http://www.w3.org/1999/xlink" xmlns:a="http://ns.adobe.com/AdobeSVGViewerExtensions/3.0/"
	 x="0px" y="0px" width="118px" height="118px" viewBox="0 0 118 118" style="enable-background:new 0 0 118 118;"
	 xml:space="preserve">
<style type="text/css">
<![CDATA[
	.st0{fill:none;stroke:#E80707;stroke-miterlimit:10;}
	.st1{fill:none;stroke:#000000;stroke-linecap:round;stroke-linejoin:round;stroke-miterlimit:10;}
	.st2{fill:none;stroke:#FFFFFF;stroke-width:2;stroke-linecap:round;stroke-linejoin:round;stroke-miterlimit:10;}
	.st3{fill:url(#SVGID_1_);}
	.st4{fill:url(#SVGID_2_);}
	.st5{fill:url(#SVGID_3_);}
	.st6{fill:url(#SVGID_4_);}
	.st7{fill:url(#SVGID_5_);}
	.st8{fill:url(#SVGID_6_);}
	.st9{fill:url(#SVGID_7_);}
	.st10{fill:url(#SVGID_8_);}
	.st11{fill:url(#SVGID_9_);}
	.st12{fill:#FEFEFE;}
	.st13{fill:none;stroke:#FFFFFF;stroke-linecap:round;stroke-linejoin:round;stroke-miterlimit:10;}
	.st14{fill:#FFFFFF;}
	.st15{fill:none;stroke:#B92B00;stroke-width:2;stroke-linecap:round;stroke-linejoin:round;stroke-miterlimit:10;}
	.st16{fill-rule:evenodd;clip-rule:evenodd;fill:#FFFFFF;}
	.st17{stroke:#000000;stroke-miterlimit:10;}
	.st18{fill:none;stroke:#B92B00;stroke-miterlimit:10;}
	.st19{fill:none;stroke:#B92B00;stroke-width:0.5;stroke-linecap:round;stroke-linejoin:round;stroke-miterlimit:10;}
	.st20{fill:none;stroke:#B92B00;stroke-linecap:round;stroke-linejoin:round;stroke-miterlimit:10;}
]]>
</style>
<g>
	<linearGradient id="SVGID_1_" gradientUnits="userSpaceOnUse" x1="20.7095" y1="20.709" x2="97.2904" y2="97.2899">
		<stop  offset="0" style="stop-color:#00D2D0"/>
		<stop  offset="1" style="stop-color:#0078A5"/>
		<a:midPointStop  offset="0" style="stop-color:#00D2D0"/>
		<a:midPointStop  offset="0.5" style="stop-color:#00D2D0"/>
		<a:midPointStop  offset="1" style="stop-color:#0078A5"/>
	</linearGradient>
	<path class="st3" d="M113.2,59c0,29.9-24.2,54.1-54.2,54.1C29.1,113.1,4.8,88.9,4.8,59C4.8,29.1,29.1,4.8,59,4.8
		C88.9,4.8,113.2,29.1,113.2,59z"/>
	<path class="st14" d="M59,0C26.4,0,0,26.4,0,59c0,32.6,26.4,59,59,59c32.6,0,59-26.4,59-59C118,26.4,91.6,0,59,0z M72.2,51.1V40.1
		h18v11.4L72.2,51.1z M90.2,53.1v11.6l-18-7.8v-3.8H90.2z M39.2,36.5c0,0,1.2-2.1,3.2-2.3l7.8,0.1v-3.1l7.9,0.2l0-4.3h-7.9V24
		l20-0.1v2.3l-8,0.1v4.8l8,0.1v3.1l7.4-0.2c0,0,1.6,0.5,1.6,2.2v1.9h-40V36.5z M49.2,50.5V40.3l21,0.3v10.2L49.2,50.5z M70.2,53.7
		v2.5l-6.4-2.8L70.2,53.7z M55.1,53.1l-5.8,2.7v-2.7H55.1z M29.2,40.1h18v11h-18V40.1z M29.2,53.1h18v3.6l-18,7.8V53.1z M73.5,86.5
		l-11.7,5.9l-0.6-26.2v26.4L47,87.7c0,0-15.6-0.2-20.2-21.1l29.7-10.7c0,0,3.9-0.7,5.9,0.2c2.1,0.9,29.2,10.4,29.2,10.4
		S90.2,82.1,73.5,86.5z"/>
</g>
</svg>
