<?xml version="1.0" encoding="utf-8"?>
<!-- Generator: Adobe Illustrator 16.0.0, SVG Export Plug-In . SVG Version: 6.00 Build 0)  -->
<!DOCTYPE svg PUBLIC "-//W3C//DTD SVG 1.1//EN" "http://www.w3.org/Graphics/SVG/1.1/DTD/svg11.dtd" [
	<!ENTITY ns_flows "http://ns.adobe.com/Flows/1.0/">
	<!ENTITY ns_extend "http://ns.adobe.com/Extensibility/1.0/">
	<!ENTITY ns_ai "http://ns.adobe.com/AdobeIllustrator/10.0/">
	<!ENTITY ns_graphs "http://ns.adobe.com/Graphs/1.0/">
]>
<svg version="1.1" id="Layer_1" xmlns:x="&ns_extend;" xmlns:i="&ns_ai;" xmlns:graph="&ns_graphs;"
	 xmlns="http://www.w3.org/2000/svg" xmlns:xlink="http://www.w3.org/1999/xlink" xmlns:a="http://ns.adobe.com/AdobeSVGViewerExtensions/3.0/"
	 x="0px" y="0px" width="117.8px" height="117.8px" viewBox="0 0 117.8 117.8" style="enable-background:new 0 0 117.8 117.8;"
	 xml:space="preserve">
<style type="text/css">
<![CDATA[
	.st0{fill:none;stroke:#E80707;stroke-miterlimit:10;}
	.st1{fill:none;stroke:#000000;stroke-linecap:round;stroke-linejoin:round;stroke-miterlimit:10;}
	.st2{fill:none;stroke:#FFFFFF;stroke-width:2;stroke-linecap:round;stroke-linejoin:round;stroke-miterlimit:10;}
	.st3{fill:url(#SVGID_1_);}
	.st4{fill:url(#SVGID_2_);}
	.st5{fill:url(#SVGID_3_);}
	.st6{fill:url(#SVGID_4_);}
	.st7{fill:url(#SVGID_5_);}
	.st8{fill:url(#SVGID_6_);}
	.st9{fill:url(#SVGID_7_);}
	.st10{fill:url(#SVGID_8_);}
	.st11{fill:url(#SVGID_9_);}
	.st12{fill:#FEFEFE;}
	.st13{fill:none;stroke:#FFFFFF;stroke-linecap:round;stroke-linejoin:round;stroke-miterlimit:10;}
	.st14{fill:#FFFFFF;}
	.st15{fill:none;stroke:#B92B00;stroke-width:2;stroke-linecap:round;stroke-linejoin:round;stroke-miterlimit:10;}
	.st16{fill-rule:evenodd;clip-rule:evenodd;fill:#FFFFFF;}
	.st17{stroke:#000000;stroke-miterlimit:10;}
	.st18{fill:none;stroke:#B92B00;stroke-miterlimit:10;}
	.st19{fill:none;stroke:#B92B00;stroke-width:0.5;stroke-linecap:round;stroke-linejoin:round;stroke-miterlimit:10;}
	.st20{fill:none;stroke:#B92B00;stroke-linecap:round;stroke-linejoin:round;stroke-miterlimit:10;}
]]>
</style>
<g>
	<linearGradient id="SVGID_1_" gradientUnits="userSpaceOnUse" x1="20.6807" y1="20.6807" x2="97.1532" y2="97.1532">
		<stop  offset="0" style="stop-color:#00D2D0"/>
		<stop  offset="1" style="stop-color:#0078A5"/>
		<a:midPointStop  offset="0" style="stop-color:#00D2D0"/>
		<a:midPointStop  offset="0.5" style="stop-color:#00D2D0"/>
		<a:midPointStop  offset="1" style="stop-color:#0078A5"/>
	</linearGradient>
	<circle class="st3" cx="58.9" cy="58.9" r="54.1"/>
	<g>
		<rect x="30.2" y="52" class="st14" width="3" height="3"/>
		<rect x="30.2" y="58" class="st14" width="3" height="3"/>
		<path class="st14" d="M58.9,0C26.4,0,0,26.4,0,58.9c0,32.5,26.4,58.9,58.9,58.9c32.5,0,58.9-26.4,58.9-58.9
			C117.8,26.4,91.5,0,58.9,0z M69.2,37h8v6h-8V37z M69.2,45h19v6h-19V45z M69.2,53h25v10h-25V53z M67.1,62.7C67,65,65.2,66,65.2,66
			h-26V56h27.9C67.1,56,67.2,60.3,67.1,62.7z M57.2,43h9v11h-9V43z M45.2,40h9v6h-9V40z M45.2,48h9v6h-9V48z M25.2,43
			c-0.6,0-1-0.4-1-1s0.4-1,1-1h4v-8c0-0.6,0.4-1,1-1s1,0.4,1,1v8h4c0.6,0,1,0.4,1,1s-0.4,1-1,1h-4v4h9l-4,2.9V66h-13V49.8l-3-2.9h9
			v-4H25.2z M85.9,85.5c0,0-2.6-2.5-6.3-2.4s-3.9,2.2-7.1,2.4s-4.8-3.2-7.4-2.8s-4.3,2.7-7.6,2.7s-4.9-2.8-8.1-2.6s-3.8,2.4-8,2.4
			s-4.9-2.5-7.4-2.5c-2.2,0-3.4,0.4-6.6,3.1L22,72.7c0,0-1.1-3.7-0.3-3.7h44.5c0,0,2.1,0,3.1-3h27.9C97.2,66,93.9,77.5,85.9,85.5z"
			/>
	</g>
</g>
</svg>
