<?xml version="1.0" encoding="utf-8"?>
<!-- Generator: Adobe Illustrator 16.0.0, SVG Export Plug-In . SVG Version: 6.00 Build 0)  -->
<!DOCTYPE svg PUBLIC "-//W3C//DTD SVG 1.1//EN" "http://www.w3.org/Graphics/SVG/1.1/DTD/svg11.dtd" [
	<!ENTITY ns_flows "http://ns.adobe.com/Flows/1.0/">
	<!ENTITY ns_extend "http://ns.adobe.com/Extensibility/1.0/">
	<!ENTITY ns_ai "http://ns.adobe.com/AdobeIllustrator/10.0/">
	<!ENTITY ns_graphs "http://ns.adobe.com/Graphs/1.0/">
]>
<svg version="1.1" id="Layer_1" xmlns:x="&ns_extend;" xmlns:i="&ns_ai;" xmlns:graph="&ns_graphs;"
	 xmlns="http://www.w3.org/2000/svg" xmlns:xlink="http://www.w3.org/1999/xlink" xmlns:a="http://ns.adobe.com/AdobeSVGViewerExtensions/3.0/"
	 x="0px" y="0px" width="117.8px" height="117.8px" viewBox="0 0 117.8 117.8" style="enable-background:new 0 0 117.8 117.8;"
	 xml:space="preserve">
<style type="text/css">
<![CDATA[
	.st0{fill:none;stroke:#E80707;stroke-miterlimit:10;}
	.st1{fill:none;stroke:#000000;stroke-linecap:round;stroke-linejoin:round;stroke-miterlimit:10;}
	.st2{fill:none;stroke:#FFFFFF;stroke-width:2;stroke-linecap:round;stroke-linejoin:round;stroke-miterlimit:10;}
	.st3{fill:url(#SVGID_1_);}
	.st4{fill:url(#SVGID_2_);}
	.st5{fill:url(#SVGID_3_);}
	.st6{fill:url(#SVGID_4_);}
	.st7{fill:url(#SVGID_5_);}
	.st8{fill:url(#SVGID_6_);}
	.st9{fill:url(#SVGID_7_);}
	.st10{fill:url(#SVGID_8_);}
	.st11{fill:url(#SVGID_9_);}
	.st12{fill:#FEFEFE;}
	.st13{fill:none;stroke:#FFFFFF;stroke-linecap:round;stroke-linejoin:round;stroke-miterlimit:10;}
	.st14{fill:#FFFFFF;}
	.st15{fill:none;stroke:#B92B00;stroke-width:2;stroke-linecap:round;stroke-linejoin:round;stroke-miterlimit:10;}
	.st16{fill-rule:evenodd;clip-rule:evenodd;fill:#FFFFFF;}
	.st17{stroke:#000000;stroke-miterlimit:10;}
	.st18{fill:none;stroke:#B92B00;stroke-miterlimit:10;}
	.st19{fill:none;stroke:#B92B00;stroke-width:0.5;stroke-linecap:round;stroke-linejoin:round;stroke-miterlimit:10;}
	.st20{fill:none;stroke:#B92B00;stroke-linecap:round;stroke-linejoin:round;stroke-miterlimit:10;}
]]>
</style>
<g>
	<linearGradient id="SVGID_1_" gradientUnits="userSpaceOnUse" x1="20.6797" y1="20.6797" x2="97.1536" y2="97.1536">
		<stop  offset="0" style="stop-color:#00D2D0"/>
		<stop  offset="1" style="stop-color:#0078A5"/>
		<a:midPointStop  offset="0" style="stop-color:#00D2D0"/>
		<a:midPointStop  offset="0.5" style="stop-color:#00D2D0"/>
		<a:midPointStop  offset="1" style="stop-color:#0078A5"/>
	</linearGradient>
	<circle class="st3" cx="58.9" cy="58.9" r="54.1"/>
	<g>
		<path class="st14" d="M77.2,44.3c0.9,0.4,1,1.3,1,1.6v-4.5h-1V44.3z"/>
		<path class="st14" d="M74.2,45.6c0.2-0.6,0.6-1.4,2-1.4v-2.7h-2V45.6z"/>
		<path class="st14" d="M58.9,0C26.4,0,0,26.4,0,58.9c0,32.5,26.4,58.9,58.9,58.9c32.5,0,58.9-26.4,58.9-58.9
			C117.8,26.4,91.5,0,58.9,0z M68.2,29.5h16v7h-16V29.5z M40.2,89.5h-7v-16h7V89.5z M55.2,89.5h-14v-16h14V89.5z M55.2,72.5h-14v-7
			h14V72.5z M55.2,64.5h-7v-16h7V64.5z M63.2,89.5h-7v-16h7V89.5z M63.2,72.5h-7v-7h7V72.5z M63.2,64.5h-7v-7h7V64.5z M71.2,89.5h-7
			v-16h7V89.5z M71.2,72.5h-7v-7h7V72.5z M96.2,41.5h-3V82c0,0,1.4-0.5,1.4,1.4c0,0,0.6,1.1-1.4,1.4V88c0,0-0.3,2-2,1.8
			s-1.8-1.2-1.9-1.8l0.1-3.3c0,0-2.1,0.6-2.1-1.3c0-1.6,1.5-1.5,1.9-1.4V41.5h-10v5c0.7,0.4,1.6,1.1,1.8,2.6l-0.8,0v8.4h-8v-8h-1
			c0,0-0.5-2,2-2.9v-5.1h-45V82c0,0,1.4-0.5,1.4,1.4c0,0,0.6,1.1-1.4,1.4V88c0,0-0.3,2-2,1.8s-1.8-1.2-1.9-1.8l0.1-3.3
			c0,0-2.1,0.6-2.1-1.3c0-1.6,1.5-1.5,1.9-1.4V41.5h-3v-4h3v-4h4v4h61v-4h4v4h3V41.5z"/>
	</g>
</g>
</svg>
