<?xml version="1.0" encoding="utf-8"?>
<!-- Generator: Adobe Illustrator 16.0.0, SVG Export Plug-In . SVG Version: 6.00 Build 0)  -->
<!DOCTYPE svg PUBLIC "-//W3C//DTD SVG 1.1//EN" "http://www.w3.org/Graphics/SVG/1.1/DTD/svg11.dtd" [
	<!ENTITY ns_flows "http://ns.adobe.com/Flows/1.0/">
	<!ENTITY ns_extend "http://ns.adobe.com/Extensibility/1.0/">
	<!ENTITY ns_ai "http://ns.adobe.com/AdobeIllustrator/10.0/">
	<!ENTITY ns_graphs "http://ns.adobe.com/Graphs/1.0/">
]>
<svg version="1.1" id="Layer_1" xmlns:x="&ns_extend;" xmlns:i="&ns_ai;" xmlns:graph="&ns_graphs;"
	 xmlns="http://www.w3.org/2000/svg" xmlns:xlink="http://www.w3.org/1999/xlink" xmlns:a="http://ns.adobe.com/AdobeSVGViewerExtensions/3.0/"
	 x="0px" y="0px" width="117.8px" height="117.8px" viewBox="0 0 117.8 117.8" style="enable-background:new 0 0 117.8 117.8;"
	 xml:space="preserve">
<style type="text/css">
<![CDATA[
	.st0{fill:none;stroke:#E80707;stroke-miterlimit:10;}
	.st1{fill:none;stroke:#000000;stroke-linecap:round;stroke-linejoin:round;stroke-miterlimit:10;}
	.st2{fill:none;stroke:#FFFFFF;stroke-width:2;stroke-linecap:round;stroke-linejoin:round;stroke-miterlimit:10;}
	.st3{fill:url(#SVGID_1_);}
	.st4{fill:url(#SVGID_2_);}
	.st5{fill:url(#SVGID_3_);}
	.st6{fill:url(#SVGID_4_);}
	.st7{fill:url(#SVGID_5_);}
	.st8{fill:url(#SVGID_6_);}
	.st9{fill:url(#SVGID_7_);}
	.st10{fill:url(#SVGID_8_);}
	.st11{fill:url(#SVGID_9_);}
	.st12{fill:#FEFEFE;}
	.st13{fill:none;stroke:#FFFFFF;stroke-linecap:round;stroke-linejoin:round;stroke-miterlimit:10;}
	.st14{fill:#FFFFFF;}
	.st15{fill:none;stroke:#B92B00;stroke-width:2;stroke-linecap:round;stroke-linejoin:round;stroke-miterlimit:10;}
	.st16{fill-rule:evenodd;clip-rule:evenodd;fill:#FFFFFF;}
	.st17{stroke:#000000;stroke-miterlimit:10;}
	.st18{fill:none;stroke:#B92B00;stroke-miterlimit:10;}
	.st19{fill:none;stroke:#B92B00;stroke-width:0.5;stroke-linecap:round;stroke-linejoin:round;stroke-miterlimit:10;}
	.st20{fill:none;stroke:#B92B00;stroke-linecap:round;stroke-linejoin:round;stroke-miterlimit:10;}
]]>
</style>
<g>
	<linearGradient id="SVGID_1_" gradientUnits="userSpaceOnUse" x1="20.6802" y1="20.6807" x2="97.1527" y2="97.1532">
		<stop  offset="0" style="stop-color:#00D2D0"/>
		<stop  offset="1" style="stop-color:#0078A5"/>
		<a:midPointStop  offset="0" style="stop-color:#00D2D0"/>
		<a:midPointStop  offset="0.5" style="stop-color:#00D2D0"/>
		<a:midPointStop  offset="1" style="stop-color:#0078A5"/>
	</linearGradient>
	<circle class="st3" cx="58.9" cy="58.9" r="54.1"/>
	<g>
		<path class="st14" d="M48.8,62c-0.3,0.3-0.8,0.6-1.6,0.6c0,0-1-0.2-1.6-0.7c-0.9,0.1-1.6,0.4-2,0.8C43,63.1,43,63.7,43,63.7
			l-0.4,0c2.3,0,5,0,7.5,0C50,62.8,49.4,62.2,48.8,62z"/>
		<path class="st14" d="M58.9,0C26.4,0,0,26.4,0,58.9c0,32.5,26.4,58.9,58.9,58.9c32.5,0,58.9-26.4,58.9-58.9
			C117.8,26.4,91.5,0,58.9,0z M57.7,42.7c2.8,0.6,6.3,1.1,7.3,2.1s8.5,13.5,8.5,13.5s1.8,3.1-0.4,4.9c0,0-2,1.6-3.9-0.5
			s-4.9-8-4.9-8s-1.1,7-0.6,9.5c0.8,4.2,7.4,15.7,7.4,15.7s2.8,5.2-0.3,7.4c0,0-2.9,1.7-5.7-4.5s-3.8-7.5-3.8-7.5v-9.8
			c0,0-0.6-3.4-3.1-3.4h-5.9l1-10l-3,2.7V59l-6.1-0.1c0,0-0.3-5.2,0.2-6.5s9.2-9.7,9.2-9.7S54.9,42.1,57.7,42.7z M55.7,35.9
			c0-3.1,2.5-5.6,5.6-5.6c3.1,0,5.6,2.5,5.6,5.6c0,3.1-2.5,5.6-5.6,5.6C58.2,41.5,55.7,39,55.7,35.9z M34.2,78.7
			c0-2.8,0.3-12.1,0.3-12.1s-0.1-2.7,2.9-2.8c0.8,0,2.5,0,4.6,0c0-0.2,0-1,0.8-1.8c0.9-0.9,2.3-1.2,4.3-1.1c0.5-0.1,1.1,0,1.8,0.2
			h0.3c0-0.1,0,0,0,0h0c0.9,0.3,1.9,1.5,2.1,2.8c3.4,0,6.1,0,6.1,0s1.8,0.3,1.8,2.2s0,14,0,14s-0.7,1.9-3.1,1.8s-20.1,0-20.1,0
			S34.2,81.5,34.2,78.7z M45.9,92.8c-3.1-0.2-1.7-3.6-1.3-5.2c0.7-2.4,1.2-3.6,1.2-3.6h6.4l-2.9,7.3C49.3,91.2,48.7,92.9,45.9,92.8z
			 M85.2,87c0,0-0.4,6-5.3,6c-3.7,0-28.7,0-28.7,0l1.2-3h26.8c0,0,3-0.8,3-4.5c0-2.5,0-53.2,0-53.2s0.8-3.3-2.7-3.3H51.2
			c0,0-3.6,0.3-3.5,3.6c0,1.7-0.3,12.5-0.3,12.5L44.2,49V31.5c0,0,0.8-5.9,6.4-6c3.7,0,29.2,0,29.2,0s5.4,0.3,5.4,5.7
			C85.2,35.5,85.2,87,85.2,87z"/>
	</g>
</g>
</svg>
