<?xml version="1.0" encoding="utf-8"?>
<!-- Generator: Adobe Illustrator 16.0.0, SVG Export Plug-In . SVG Version: 6.00 Build 0)  -->
<!DOCTYPE svg PUBLIC "-//W3C//DTD SVG 1.1//EN" "http://www.w3.org/Graphics/SVG/1.1/DTD/svg11.dtd" [
	<!ENTITY ns_flows "http://ns.adobe.com/Flows/1.0/">
	<!ENTITY ns_extend "http://ns.adobe.com/Extensibility/1.0/">
	<!ENTITY ns_ai "http://ns.adobe.com/AdobeIllustrator/10.0/">
	<!ENTITY ns_graphs "http://ns.adobe.com/Graphs/1.0/">
]>
<svg version="1.1" id="Layer_1" xmlns:x="&ns_extend;" xmlns:i="&ns_ai;" xmlns:graph="&ns_graphs;"
	 xmlns="http://www.w3.org/2000/svg" xmlns:xlink="http://www.w3.org/1999/xlink" xmlns:a="http://ns.adobe.com/AdobeSVGViewerExtensions/3.0/"
	 x="0px" y="0px" width="117.8px" height="117.8px" viewBox="0 0 117.8 117.8" style="enable-background:new 0 0 117.8 117.8;"
	 xml:space="preserve">
<style type="text/css">
<![CDATA[
	.st0{fill:none;stroke:#E80707;stroke-miterlimit:10;}
	.st1{fill:none;stroke:#000000;stroke-linecap:round;stroke-linejoin:round;stroke-miterlimit:10;}
	.st2{fill:none;stroke:#FFFFFF;stroke-width:2;stroke-linecap:round;stroke-linejoin:round;stroke-miterlimit:10;}
	.st3{fill:url(#SVGID_1_);}
	.st4{fill:url(#SVGID_2_);}
	.st5{fill:url(#SVGID_3_);}
	.st6{fill:url(#SVGID_4_);}
	.st7{fill:url(#SVGID_5_);}
	.st8{fill:url(#SVGID_6_);}
	.st9{fill:url(#SVGID_7_);}
	.st10{fill:url(#SVGID_8_);}
	.st11{fill:url(#SVGID_9_);}
	.st12{fill:#FEFEFE;}
	.st13{fill:none;stroke:#FFFFFF;stroke-linecap:round;stroke-linejoin:round;stroke-miterlimit:10;}
	.st14{fill:#FFFFFF;}
	.st15{fill:none;stroke:#B92B00;stroke-width:2;stroke-linecap:round;stroke-linejoin:round;stroke-miterlimit:10;}
	.st16{fill-rule:evenodd;clip-rule:evenodd;fill:#FFFFFF;}
	.st17{stroke:#000000;stroke-miterlimit:10;}
	.st18{fill:none;stroke:#B92B00;stroke-miterlimit:10;}
	.st19{fill:none;stroke:#B92B00;stroke-width:0.5;stroke-linecap:round;stroke-linejoin:round;stroke-miterlimit:10;}
	.st20{fill:none;stroke:#B92B00;stroke-linecap:round;stroke-linejoin:round;stroke-miterlimit:10;}
]]>
</style>
<g>
	<linearGradient id="SVGID_1_" gradientUnits="userSpaceOnUse" x1="20.6807" y1="20.6807" x2="97.1545" y2="97.1545">
		<stop  offset="0" style="stop-color:#00D2D0"/>
		<stop  offset="1" style="stop-color:#0078A5"/>
		<a:midPointStop  offset="0" style="stop-color:#00D2D0"/>
		<a:midPointStop  offset="0.5" style="stop-color:#00D2D0"/>
		<a:midPointStop  offset="1" style="stop-color:#0078A5"/>
	</linearGradient>
	<circle class="st3" cx="58.9" cy="58.9" r="54.1"/>
	<g>
		<path class="st14" d="M66.4,72.7c0,0.8-0.1,1.6-0.3,2.3l3.7-0.3c-0.3-0.7-0.5-1.4-0.6-2.2L66.4,72.7z"/>
		<path class="st14" d="M56.5,73.7c0,0.3,0,0.6,0,0.9c0,0.4,0,0.9-0.1,1.3l3.2-0.3c-0.3-0.6-0.4-1.4-0.5-2.1L56.5,73.7z"/>
		<path class="st14" d="M69.2,70.6c0.1-0.7,0.2-1.3,0.5-1.9c-1.3,0.2-2.6,0.3-4,0.5c0.2,0.5,0.4,1.1,0.6,1.8L69.2,70.6z"/>
		<path class="st14" d="M77.1,71.6c0,0.8-0.1,1.6-0.4,2.4l4-0.4c-0.3-0.7-0.5-1.5-0.6-2.3L77.1,71.6z"/>
		<path class="st14" d="M58.9,0C26.4,0,0,26.4,0,58.9c0,32.5,26.4,58.9,58.9,58.9c32.5,0,58.9-26.4,58.9-58.9
			C117.8,26.4,91.5,0,58.9,0z M53.2,56l0.9-0.1l-2.9-8.4c0,0-0.3-2,1.4-3c1.4-0.9,6.3-1.3,7.6-1.3V39h-2c-0.3,0-0.5-0.2-0.5-0.5
			S58,38,58.2,38h2v-3h-2c-0.3,0-0.5-0.2-0.5-0.5S58,34,58.2,34h2v-4h-2c-0.3,0-0.5-0.2-0.5-0.5S58,29,58.2,29h2v-1
			c0-0.3,0.2-0.5,0.5-0.5s0.5,0.2,0.5,0.5v1h2c0.3,0,0.5,0.2,0.5,0.5S63.5,30,63.2,30h-2v4h2c0.3,0,0.5,0.2,0.5,0.5S63.5,35,63.2,35
			h-2v3h2c0.3,0,0.5,0.2,0.5,0.5S63.5,39,63.2,39h-2v4.1l6,0.1V39h-2c-0.3,0-0.5-0.2-0.5-0.5S65,38,65.2,38h2c0-0.3,0.2-0.5,0.5-0.5
			s0.5,0.2,0.5,0.5h2c0.3,0,0.5,0.2,0.5,0.5S70.5,39,70.2,39h-2v4.5c1.1,0.4,3.2,1.5,3.1,2.8c-0.1,1.8-1.9,7-1.9,7l-0.3,2.6
			c0,0,6.3,0.2,7.6,4.4c0.3,0.8,0.3,2.4,0.3,2.4l-31.6,4C45.5,66.6,47.9,55.7,53.2,56z M88.1,70.5c0,0.9-0.1,1.7-0.4,2.4l6.3-0.6
			c0,0,0.5,8.1-2.9,12s-6.6,4.1-10.3,1.5c0,0-3.9,2.8-5.3,2.4S73,89,69.7,85.6c0,0-2.8,2.9-6.4,3s-6-3.3-6-3.3s-1.3,3.1-5.8,3.1
			s-5-3-5-3s-2.1,2.8-5.6,3s-5.1-3-5.1-3s-2,3.1-4.9,2.9s-6.9-0.8-11.1-9.1l29.5-2.7c-0.1-0.6-0.2-1.3-0.2-2c0,0,0-0.1,0-0.1l-30,3
			L18.7,76l30.6-3.2c0.1-0.6,0.3-1.2,0.6-1.7c-16.3,1.9-31.2,3.6-31.2,3.6l0.1-1.4l3.1-3.4c0,0,1.9-1,2.5-0.4s1.1,1.3,1.1,1.3
			L92.4,62c0,0,2.5,0.6,1.6,3c0,0-0.7,0.7-7,1.6c0.4,0.6,0.7,1.3,0.9,2.1l6.2-0.7l0.1,1.9L88.1,70.5C88.1,70.5,88.1,70.5,88.1,70.5z
			 M99.2,77c0,0-1.4,3.8-4,0v-8l0.3-6.5c0,0-0.2-2,1.4-2s2.3,1.1,2.3,2.5S99.2,77,99.2,77z"/>
		<path class="st14" d="M59.5,69.9c-1.4,0.2-2.8,0.3-4.1,0.5c0.3,0.5,0.6,1,0.8,1.6l3-0.3C59.2,71,59.3,70.4,59.5,69.9z"/>
		<path class="st14" d="M76.9,69.8l3.3-0.3c0.1-0.8,0.3-1.5,0.6-2.1c-1.4,0.2-3,0.4-4.6,0.6C76.5,68.5,76.8,69.1,76.9,69.8z"/>
	</g>
</g>
</svg>
