<?xml version="1.0" encoding="utf-8"?>
<!-- Generator: Adobe Illustrator 16.0.0, SVG Export Plug-In . SVG Version: 6.00 Build 0)  -->
<!DOCTYPE svg PUBLIC "-//W3C//DTD SVG 1.1//EN" "http://www.w3.org/Graphics/SVG/1.1/DTD/svg11.dtd" [
	<!ENTITY ns_flows "http://ns.adobe.com/Flows/1.0/">
	<!ENTITY ns_extend "http://ns.adobe.com/Extensibility/1.0/">
	<!ENTITY ns_ai "http://ns.adobe.com/AdobeIllustrator/10.0/">
	<!ENTITY ns_graphs "http://ns.adobe.com/Graphs/1.0/">
]>
<svg version="1.1" id="Layer_1" xmlns:x="&ns_extend;" xmlns:i="&ns_ai;" xmlns:graph="&ns_graphs;"
	 xmlns="http://www.w3.org/2000/svg" xmlns:xlink="http://www.w3.org/1999/xlink" xmlns:a="http://ns.adobe.com/AdobeSVGViewerExtensions/3.0/"
	 x="0px" y="0px" width="72.9px" height="72.9px" viewBox="0 0 72.9 72.9" style="enable-background:new 0 0 72.9 72.9;"
	 xml:space="preserve">
<style type="text/css">
<![CDATA[
	.st0{fill:none;stroke:#E80707;stroke-miterlimit:10;}
	.st1{fill:none;stroke:#000000;stroke-linecap:round;stroke-linejoin:round;stroke-miterlimit:10;}
	.st2{fill:none;stroke:#FFFFFF;stroke-width:2;stroke-linecap:round;stroke-linejoin:round;stroke-miterlimit:10;}
	.st3{fill-rule:evenodd;clip-rule:evenodd;fill:#14274A;}
	.st4{fill:url(#SVGID_1_);}
	.st5{fill:url(#SVGID_2_);}
	.st6{fill:url(#SVGID_3_);}
	.st7{fill:url(#SVGID_4_);}
	.st8{fill:url(#SVGID_5_);}
	.st9{fill:url(#SVGID_6_);}
	.st10{fill:url(#SVGID_7_);}
	.st11{fill:url(#SVGID_8_);}
	.st12{fill:url(#SVGID_9_);}
	.st13{fill-rule:evenodd;clip-rule:evenodd;}
	.st14{fill:none;stroke:#FFFFFF;stroke-linecap:round;stroke-linejoin:round;stroke-miterlimit:10;stroke-dasharray:2,3;}
	.st15{fill:#FEFEFE;}
	.st16{fill:none;stroke:#FFFFFF;stroke-linecap:round;stroke-linejoin:round;stroke-miterlimit:10;}
	.st17{fill:#FFFFFF;}
	.st18{fill:none;stroke:#B92B00;stroke-width:2;stroke-linecap:round;stroke-linejoin:round;stroke-miterlimit:10;}
	.st19{fill-rule:evenodd;clip-rule:evenodd;fill:#FFFFFF;}
	.st20{stroke:#000000;stroke-miterlimit:10;}
	.st21{fill:none;stroke:#B92B00;stroke-miterlimit:10;}
	.st22{fill:none;stroke:#B92B00;stroke-width:0.5;stroke-linecap:round;stroke-linejoin:round;stroke-miterlimit:10;}
	.st23{fill:none;stroke:#B92B00;stroke-linecap:round;stroke-linejoin:round;stroke-miterlimit:10;}
	.st24{fill-rule:evenodd;clip-rule:evenodd;fill:#000001;}
]]>
</style>
<circle class="st16" cx="36.5" cy="36.5" r="36"/>
<path class="st14" d="M58.9,59.5c-5.8,5.7-13.7,9.1-22.5,9.1c-8.6,0-16.3-3.3-22.1-8.8"/>
<path class="st14" d="M7.4,50.4c-2-4.2-3.2-9-3.2-14c0-17.8,14.4-32.2,32.2-32.2s32.2,14.4,32.2,32.2c0,5.5-1.4,10.7-3.8,15.3"/>
<path class="st16" d="M14.7,41.1c-0.3-1.5-0.5-3-0.5-4.6c0-6.7,3-12.8,7.7-16.8"/>
<path class="st16" d="M50.8,19.5c4.8,4.1,7.8,10.1,7.8,16.9c0,1.5-0.1,2.9-0.4,4.2"/>
<g>
	<g>
		<g>
			<path class="st17" d="M37.1,8.9c0.1,0,0.1,0.5,0.1,1.1c0,1.2,0,2.2,0,3.3l0,1.2c0,0.2,0,0.4,0,0.6l0,0.2c0,0.4,0.3,0.8,0.7,0.9
				c0.1,0,0.2,0,0.3,0c0.3,0,0.6-0.1,0.8-0.4c0.3-0.4,0.4-0.7,0.4-1c0.1-0.3,0.1-0.7,0.2-1c0.2-1,0.4-2,0.7-3c0,0,0-0.1,0-0.1
				c0,0,0,0,0,0c3.1,1.4,4.7,3.5,4.9,6.7c0,0,0,0.1,0,0.1c-0.1,1.1,0.5,1.4,0.8,1.5c0.6,0.1,1,0.5,1,0.6v1c0,0-0.9,0-1.4,0
				c-4.2-0.3-7.9-0.5-11-0.5c-3.2,0-5.8,0.3-7.7,0.7c-0.2,0-0.3,0.1-0.3,0.1c0,0,0,0,0,0c-0.6,0-1.5-0.3-1.5-0.3v-0.9
				c0-0.2,0.3-0.5,0.6-0.5c1-0.2,1.5-0.9,1.6-1.9c0.2-3,2.1-5.6,4.9-6.6c0.4,1.1,0.6,2.2,0.8,3.3l0,0.3c0,0.2,0.1,0.4,0.1,0.6
				c0.1,0.3,0.1,0.5,0.2,0.7c0.1,0.5,0.5,0.8,1,0.8c0,0,0,0,0.1,0c0.5,0,0.9-0.4,0.9-0.9c0.2-2.1,0.2-4.1,0.1-5.6c0-0.5,0-1,0.1-1
				h1.5 M37.6,7.9c-0.8,0-1.6,0-2.4,0c-0.6,1-0.6,1.2-0.6,2c0,1.9,0,3.6-0.1,5.5c-0.1-0.4-0.2-0.9-0.3-1.4c-0.3-1.3-0.6-2.6-1-3.9
				c-0.1-0.4-0.3-0.6-0.6-0.6c-0.1,0-0.2,0-0.4,0.1c-3.2,1.1-5.6,4.1-5.9,7.5c0,0.5,0,0.9-0.6,1c-0.8,0.1-1.5,0.9-1.5,1.3
				c0,0.7,0,1.4,0,2.1c0,0,1.5,0.3,2.5,0.3c0,0,0,0,0,0c0.1,0,0.3-0.2,0.4-0.1c1.3-0.3,3.6-0.6,7.7-0.6c2.8,0,6.3,0.1,10.9,0.5
				c0.9,0,1.5,0,2.5,0c0-0.7,0-1.4,0-2.1c0-0.6-0.9-1.3-1.8-1.5c-0.3-0.1-0.1-0.4-0.1-0.7c-0.3-3.7-2.2-6.1-5.5-7.5
				c-0.3-0.1-0.6-0.2-0.7-0.2c-0.3,0-0.4,0.3-0.6,0.9c-0.4,1.3-0.7,2.7-1,4.1c0,0.2-0.1,0.4-0.2,0.6c0-0.2,0-0.4,0-0.7
				c0-1.6,0-2.9,0-4.5C38.2,9.1,38.2,8.9,37.6,7.9L37.6,7.9z"/>
		</g>
	</g>
	<g>
		<g>
			<path class="st17" d="M35.5,22.7c2.6,0,5.3,0.2,8.1,0.4c0.2,0.3,0.4,0.4,0.7,0.5c0,0,1.6,0.3,1.2,3.4c-0.3,2.1-1.1,2.9-1.6,2.9
				c-0.1,0-0.2,0-0.2,0c-0.4,0-0.7,0.2-0.9,0.6c0,0-0.9,2.1-2.7,3.7c-0.2,0.2-0.3,0.5-0.3,0.8l0.2,3.2L37,40.3
				c-0.2,0.2-0.4,0.4-0.4,0.7s0,0.5,0.2,0.8l1,1.3l-1.1,0.9c-0.3,0.2-0.4,0.6-0.4,0.9l1.3,7.8c0.1,0.5,0.5,0.8,0.9,0.8
				c0,0,0.1,0,0.1,0c0.4,0,0.8-0.3,0.9-0.7l4.3-13l8.7,3c0.1,0,0.1,0,0.2,0c0,0,4,0.7,4.6,3.5c0.6,2.7,1.6,6.6,2,8.3
				c-2.1,0.7-7.3,2.6-9.4,2.9c-6.1,1-14,1.3-14,1.3H36c-0.7,0-4.9-0.1-12.9-1.3c-6-0.9-9.2-2.2-10.4-2.8c0.4-1.7,1.5-5.7,2-8.4
				c0.6-2.8,4.5-3.5,4.6-3.5c0.1,0,0.1,0,0.2,0l8.7-3l4.3,13c0.1,0.4,0.5,0.7,0.9,0.7c0,0,0.1,0,0.1,0c0.5,0,0.8-0.4,0.9-0.8
				l1.3-7.8c0.1-0.4-0.1-0.7-0.4-0.9L34.3,43l1-1.3c0.2-0.2,0.3-0.5,0.2-0.8s-0.2-0.5-0.4-0.7l-2.9-2.1l0.2-3.2
				c0-0.3-0.1-0.6-0.3-0.8c-1.8-1.7-2.7-3.7-2.7-3.7c-0.2-0.4-0.5-0.6-0.9-0.6c-0.1,0-0.1,0-0.2,0c-0.6,0-1.4-0.8-1.7-2.9
				c-0.4-3,1.1-3.3,1.2-3.4c0.3,0,0.6-0.3,0.8-0.6C30.3,22.9,32.6,22.7,35.5,22.7L35.5,22.7 M35.5,21.7c-3.4,0-6,0.3-7.8,0.4l0,0.5
				c0,0-2.6,0.4-2.1,4.5c0.5,3.5,2.1,3.7,2.7,3.7c0.1,0,0.1,0,0.1,0s0.9,2.2,3,4.1l-0.2,3.7l3.4,2.4l-1.7,2.1l1.9,1.5l-1.3,7.8
				l-4.7-14l-9.7,3.4c0,0-4.7,0.7-5.4,4.3c-0.7,3.5-2.2,9.1-2.2,9.1s3,2,11.5,3.3c8.1,1.2,12.3,1.3,13,1.3c0.1,0,0.1,0,0.1,0
				s8-0.3,14.2-1.3c2.8-0.4,10.4-3.3,10.4-3.3s-1.5-5.6-2.2-9.1c-0.7-3.5-5.4-4.3-5.4-4.3l-9.7-3.4l-4.7,14l-1.3-7.8l1.9-1.5
				l-1.7-2.1l3.4-2.4L40.7,35c2-1.9,3-4.1,3-4.1s0.1,0,0.1,0c0.5,0,2.2-0.3,2.7-3.7c0.6-4.1-2-4.5-2-4.5l0-0.4
				C40.9,21.9,38,21.7,35.5,21.7L35.5,21.7z"/>
		</g>
	</g>
	<path class="st16" d="M31.7,34.8c0,0,1.6,1.4,4.3,1.5"/>
	<path class="st16" d="M27.9,23.1c0,0,0.1,3.5,0.6,5.1"/>
	<path class="st16" d="M44.2,23.1c0,0-0.1,3.5-0.6,5.1"/>
	<line class="st16" x1="37.2" y1="57.9" x2="38.9" y2="53"/>
	<line class="st16" x1="33.9" y1="54.8" x2="33.2" y2="52.9"/>
</g>
<path class="st16" d="M30.9,62.9c0,0,3.4,0.9,10.2,0.1"/>
</svg>
