<?xml version="1.0" encoding="utf-8"?>
<!-- Generator: Adobe Illustrator 16.0.0, SVG Export Plug-In . SVG Version: 6.00 Build 0)  -->
<!DOCTYPE svg PUBLIC "-//W3C//DTD SVG 1.1//EN" "http://www.w3.org/Graphics/SVG/1.1/DTD/svg11.dtd" [
	<!ENTITY ns_flows "http://ns.adobe.com/Flows/1.0/">
	<!ENTITY ns_extend "http://ns.adobe.com/Extensibility/1.0/">
	<!ENTITY ns_ai "http://ns.adobe.com/AdobeIllustrator/10.0/">
	<!ENTITY ns_graphs "http://ns.adobe.com/Graphs/1.0/">
]>
<svg version="1.1" id="Layer_1" xmlns:x="&ns_extend;" xmlns:i="&ns_ai;" xmlns:graph="&ns_graphs;"
	 xmlns="http://www.w3.org/2000/svg" xmlns:xlink="http://www.w3.org/1999/xlink" xmlns:a="http://ns.adobe.com/AdobeSVGViewerExtensions/3.0/"
	 x="0px" y="0px" width="72.9px" height="72.9px" viewBox="0 0 72.9 72.9" style="enable-background:new 0 0 72.9 72.9;"
	 xml:space="preserve">
<style type="text/css">
<![CDATA[
	.st0{fill:none;stroke:#E80707;stroke-miterlimit:10;}
	.st1{fill:none;stroke:#000000;stroke-linecap:round;stroke-linejoin:round;stroke-miterlimit:10;}
	.st2{fill:none;stroke:#FFFFFF;stroke-width:2;stroke-linecap:round;stroke-linejoin:round;stroke-miterlimit:10;}
	.st3{fill-rule:evenodd;clip-rule:evenodd;fill:#14274A;}
	.st4{fill:url(#SVGID_1_);}
	.st5{fill:url(#SVGID_2_);}
	.st6{fill:url(#SVGID_3_);}
	.st7{fill:url(#SVGID_4_);}
	.st8{fill:url(#SVGID_5_);}
	.st9{fill:url(#SVGID_6_);}
	.st10{fill:url(#SVGID_7_);}
	.st11{fill:url(#SVGID_8_);}
	.st12{fill:url(#SVGID_9_);}
	.st13{fill-rule:evenodd;clip-rule:evenodd;}
	.st14{fill:none;stroke:#FFFFFF;stroke-linecap:round;stroke-linejoin:round;stroke-miterlimit:10;stroke-dasharray:2,3;}
	.st15{fill:#FEFEFE;}
	.st16{fill:none;stroke:#FFFFFF;stroke-linecap:round;stroke-linejoin:round;stroke-miterlimit:10;}
	.st17{fill:#FFFFFF;}
	.st18{fill:none;stroke:#B92B00;stroke-width:2;stroke-linecap:round;stroke-linejoin:round;stroke-miterlimit:10;}
	.st19{fill-rule:evenodd;clip-rule:evenodd;fill:#FFFFFF;}
	.st20{stroke:#000000;stroke-miterlimit:10;}
	.st21{fill:none;stroke:#B92B00;stroke-miterlimit:10;}
	.st22{fill:none;stroke:#B92B00;stroke-width:0.5;stroke-linecap:round;stroke-linejoin:round;stroke-miterlimit:10;}
	.st23{fill:none;stroke:#B92B00;stroke-linecap:round;stroke-linejoin:round;stroke-miterlimit:10;}
	.st24{fill-rule:evenodd;clip-rule:evenodd;fill:#000001;}
]]>
</style>
<circle class="st16" cx="36.5" cy="36.5" r="36"/>
<circle class="st14" cx="36.5" cy="36.5" r="32.2"/>
<g>
	<path class="st16" d="M38.5,55.5c0,0-0.2-1.2,0.6-1.1c1,0,8.6,0,8.6,0s1,0.1,1,0.9s0,2.6,0,2.6s0.1,1.1-1.1,1.3s-8.5,0-8.5,0
		s-0.7-0.4-0.7-0.9S38.5,55.5,38.5,55.5z"/>
	<path class="st16" d="M38.8,54.9v-6c0,0,0.7-2.2,1.5-3.1s6.5-6.3,6.5-6.3s2.2-2,3.2-1.2c1.7,1.4-3,5.7-3,5.7"/>
	<path class="st16" d="M50.2,40.2c0,0,1.1-1.7,1.2-3.2s0-4.5,0-4.5s0.1-1,0.9-2s1.9-3,2.9-3s1.7,0.6,1.6,2.8s0,9.3,0,9.3
		s0,2.8-1.2,4s-7.3,6.8-7.3,6.8s-0.8,1.3-0.6,3.7"/>
	<path class="st16" d="M33.7,55.5c0,0,0.2-1.2-0.6-1.1c-1,0-8.5,0-8.5,0s-0.9,0.1-0.9,0.9s0,2.6,0,2.6s-0.3,1.1,1,1.3s8.4,0,8.4,0
		s0.6-0.4,0.6-0.9S33.7,55.5,33.7,55.5z"/>
	<path class="st16" d="M33.8,54.9v-6c0,0-0.8-2.2-1.6-3.1s-6.5-6.3-6.5-6.3s-2.2-2-3.3-1.2c-1.7,1.4,3.1,5.7,3.1,5.7"/>
	<path class="st16" d="M22.1,40.2c0,0-1.1-1.7-1.2-3.2s0-4.5,0-4.5s-0.1-1-0.9-2s-1.9-3-2.9-3s-1.7,0.6-1.6,2.8s0,9.3,0,9.3
		s0,2.8,1.2,4s7.3,6.8,7.3,6.8s0.8,1.3,0.6,3.7"/>
	<path class="st16" d="M35.9,34c0,0-4.6-6.2,2.1-9.8s13.7-4.1,13.7-4.1s-0.5,7.7-5.8,13.2S35.9,34,35.9,34z"/>
	<line class="st16" x1="35.9" y1="34" x2="51.7" y2="20.1"/>
	<line class="st16" x1="38" y1="32.5" x2="45.8" y2="32.6"/>
	<line class="st16" x1="40.3" y1="29.9" x2="40.6" y2="23"/>
	<line class="st16" x1="43.5" y1="27.4" x2="49.3" y2="27.7"/>
	<line class="st16" x1="45.9" y1="25.3" x2="46.4" y2="21.3"/>
	<line class="st16" x1="47.7" y1="23.5" x2="51" y2="23.7"/>
	<path class="st16" d="M35.1,33.7c0,0-3.7,3.2-7.2,1.6s-5.3-4.6-5.3-10s0.9-12.2,0.9-12.2s5.3,3.9,9.8,6.4c3.6,2,3.8,4.8,3.8,4.8"/>
	<line class="st16" x1="33.9" y1="34.4" x2="23.8" y2="13.7"/>
	<line class="st16" x1="32.7" y1="32" x2="22.8" y2="27.5"/>
	<line class="st16" x1="30.8" y1="28.1" x2="34.5" y2="20.6"/>
	<line class="st16" x1="28.8" y1="23.4" x2="30.3" y2="18.3"/>
	<line class="st16" x1="27.3" y1="21.2" x2="23" y2="19.4"/>
</g>
</svg>
