<?xml version="1.0" encoding="utf-8"?>
<!-- Generator: Adobe Illustrator 16.0.0, SVG Export Plug-In . SVG Version: 6.00 Build 0)  -->
<!DOCTYPE svg PUBLIC "-//W3C//DTD SVG 1.1//EN" "http://www.w3.org/Graphics/SVG/1.1/DTD/svg11.dtd" [
	<!ENTITY ns_flows "http://ns.adobe.com/Flows/1.0/">
	<!ENTITY ns_extend "http://ns.adobe.com/Extensibility/1.0/">
	<!ENTITY ns_ai "http://ns.adobe.com/AdobeIllustrator/10.0/">
	<!ENTITY ns_graphs "http://ns.adobe.com/Graphs/1.0/">
]>
<svg version="1.1" id="Layer_1" xmlns:x="&ns_extend;" xmlns:i="&ns_ai;" xmlns:graph="&ns_graphs;"
	 xmlns="http://www.w3.org/2000/svg" xmlns:xlink="http://www.w3.org/1999/xlink" xmlns:a="http://ns.adobe.com/AdobeSVGViewerExtensions/3.0/"
	 x="0px" y="0px" width="117.8px" height="117.8px" viewBox="0 0 117.8 117.8" style="enable-background:new 0 0 117.8 117.8;"
	 xml:space="preserve">
<style type="text/css">
<![CDATA[
	.st0{fill:none;stroke:#E80707;stroke-miterlimit:10;}
	.st1{fill:none;stroke:#000000;stroke-linecap:round;stroke-linejoin:round;stroke-miterlimit:10;}
	.st2{fill:none;stroke:#FFFFFF;stroke-width:2;stroke-linecap:round;stroke-linejoin:round;stroke-miterlimit:10;}
	.st3{fill:url(#SVGID_1_);}
	.st4{fill:url(#SVGID_2_);}
	.st5{fill:url(#SVGID_3_);}
	.st6{fill:url(#SVGID_4_);}
	.st7{fill:url(#SVGID_5_);}
	.st8{fill:url(#SVGID_6_);}
	.st9{fill:url(#SVGID_7_);}
	.st10{fill:url(#SVGID_8_);}
	.st11{fill:url(#SVGID_9_);}
	.st12{fill:#FEFEFE;}
	.st13{fill:none;stroke:#FFFFFF;stroke-linecap:round;stroke-linejoin:round;stroke-miterlimit:10;}
	.st14{fill:#FFFFFF;}
	.st15{fill:none;stroke:#B92B00;stroke-width:2;stroke-linecap:round;stroke-linejoin:round;stroke-miterlimit:10;}
	.st16{fill-rule:evenodd;clip-rule:evenodd;fill:#FFFFFF;}
	.st17{stroke:#000000;stroke-miterlimit:10;}
	.st18{fill:none;stroke:#B92B00;stroke-miterlimit:10;}
	.st19{fill:none;stroke:#B92B00;stroke-width:0.5;stroke-linecap:round;stroke-linejoin:round;stroke-miterlimit:10;}
	.st20{fill:none;stroke:#B92B00;stroke-linecap:round;stroke-linejoin:round;stroke-miterlimit:10;}
]]>
</style>
<g>
	<linearGradient id="SVGID_1_" gradientUnits="userSpaceOnUse" x1="20.6807" y1="20.6807" x2="97.1525" y2="97.1525">
		<stop  offset="0" style="stop-color:#00D2D0"/>
		<stop  offset="1" style="stop-color:#0078A5"/>
		<a:midPointStop  offset="0" style="stop-color:#00D2D0"/>
		<a:midPointStop  offset="0.5" style="stop-color:#00D2D0"/>
		<a:midPointStop  offset="1" style="stop-color:#0078A5"/>
	</linearGradient>
	<circle class="st3" cx="58.9" cy="58.9" r="54.1"/>
	<g>
		<polygon class="st14" points="15.2,44.7 16.9,47.3 18.9,44.7 		"/>
		<polygon class="st14" points="22.1,48 26.1,48 24.3,45.1 		"/>
		<polygon class="st14" points="24.8,44.6 26.5,47.3 28.5,44.6 		"/>
		<polygon class="st14" points="17.3,48 21.3,48 19.5,45.1 		"/>
		<polygon class="st14" points="20,44.7 21.7,47.3 23.7,44.7 		"/>
		<polygon class="st14" points="12.5,48 16.5,48 14.7,45.1 		"/>
		<polygon class="st14" points="36.5,48 40.5,48 38.7,45.1 		"/>
		<polygon class="st14" points="29.6,44.6 31.3,47.3 33.3,44.6 		"/>
		<polygon class="st14" points="39.2,44.6 40.9,47.3 42.9,44.6 		"/>
		<polygon class="st14" points="31.7,48 35.7,48 33.9,45.1 		"/>
		<polygon class="st14" points="34.4,44.6 36.1,47.3 38.1,44.6 		"/>
		<polygon class="st14" points="69.1,45 69,45 68.4,48 70.9,48 		"/>
		<polygon class="st14" points="80.7,47.7 82.6,45 79,45 		"/>
		<polygon class="st14" points="83.2,45.1 81.1,48 85,48 		"/>
		<polygon class="st14" points="76.4,48 80.3,48 78.5,45.1 		"/>
		<polygon class="st14" points="85,42 68.8,34.6 69,42 		"/>
		<polygon class="st14" points="41.3,48 45.3,48 43.5,45.1 		"/>
		<polygon class="st14" points="71.5,47 70.3,45.6 71.3,47.3 		"/>
		<polygon class="st14" points="66.2,63 85.6,63 73.2,49.3 73.2,52 69.2,52 69.2,49 68.2,49 66.2,59.7 		"/>
		<polygon class="st14" points="72,47.6 71.9,47.4 71.7,47.6 		"/>
		<polygon class="st14" points="71.8,47 73.3,45 70,45 		"/>
		<polygon class="st14" points="72.2,47.3 72.7,48 75.6,48 73.8,44.9 		"/>
		<polygon class="st14" points="76,47.7 78,45 74.3,45 		"/>
		<polygon class="st14" points="26.9,48 30.9,48 29.1,45.1 		"/>
		<polygon class="st14" points="88.4,45 90.1,47.7 92,45 		"/>
		<polygon class="st14" points="90.5,48 94.3,48 92.6,45.1 		"/>
		<polygon class="st14" points="93.1,45 94.8,47.7 96.7,45 		"/>
		<polygon class="st14" points="69.1,43.9 69.1,44 86.2,44 86.2,43 69,43 		"/>
		<polygon class="st14" points="88.2,48 89.7,48 88.2,45.6 		"/>
		<polygon class="st14" points="99.8,48 103.7,48 101.9,45.1 		"/>
		<polygon class="st14" points="85.5,47.5 86.2,46.5 86.2,45 83.7,45 		"/>
		<polygon class="st14" points="95.2,48 99,48 97.2,45.1 		"/>
		<polygon class="st14" points="97.8,45 99.4,47.7 101.4,45 		"/>
		<polygon class="st14" points="46.1,48 50.1,48 48.3,45.1 		"/>
		<polygon class="st14" points="50.9,48 54.9,48 53.1,45.1 		"/>
		<polygon class="st14" points="85.8,47.6 85.9,47.6 85.9,47.4 		"/>
		<polygon class="st14" points="48.8,44.6 50.5,47.3 52.5,44.6 		"/>
		<polygon class="st14" points="44,44.6 45.7,47.3 47.7,44.6 		"/>
		<polygon class="st14" points="55.7,48 59.7,48 57.9,45.1 		"/>
		<polygon class="st14" points="53.6,44.6 55.3,47.3 57.3,44.6 		"/>
		<path class="st14" d="M66.2,76.4c0,0.1-0.3,0.6-0.3,0.6h20c0,0,0.3-0.5,0.3-0.6V64h-20V76.4z"/>
		<path class="st14" d="M67.1,43.9l-0.2-9.4l-25.7,9.2l17.1,0v0c0,0,0.3,0.3,0.3,0.5c0,0.1-0.1,0.3-0.2,0.4l1.9,3.4h3.4l3.2-3.9
			C67,44.1,67,43.9,67.1,43.9z"/>
		<polygon class="st14" points="86.2,62.2 86.2,49 73.6,49 		"/>
		<polygon class="st14" points="66.9,45.3 66.9,44.9 64.4,48 66.4,48 		"/>
	</g>
	<path class="st14" d="M58.9,0C26.4,0,0,26.4,0,58.9c0,32.5,26.4,58.9,58.9,58.9c32.5,0,58.9-26.4,58.9-58.9
		C117.8,26.4,91.5,0,58.9,0z M40.9,86.9l-7.3,3.9l-8.8-3.2c0,0-9.1-0.1-11.9-12.6l17.8-6.3c0,0,2.3-0.4,3.6,0.1
		c1.2,0.6,17.4,6.2,17.4,6.2S50.8,84.3,40.9,86.9z M26.8,52l0-1.6l11.4-0.2l0,1.4l-5.1,0.1v2.8l5.1,0.1l0.1,2l4.6-0.3
		c0,0,1.1,0.3,1.1,1.3V59h-23v-1.2c0,0,0.3-1.2,1.4-1.4l4.1,0.1l0.1-1.8l4.8,0l0.1-2.6H26.8z M50.2,66.1l-10.1-0.2l0-6h10.1V66.1z
		 M50.4,67.8l-0.2,4.6l-9.9-3.5l-0.1-1.3L50.4,67.8z M26.8,65.5L26.5,60h11.9l-0.1,5.8L26.8,65.5z M38.2,67.4v0.9l-2.7-1.1
		L38.2,67.4z M29.3,67.2l-2.6,1.4l0.1-1.2L29.3,67.2z M25.2,60L25,65.8l-10.3,0l0.2-5.9H25.2z M25.2,67.7v1.2l-10.4,3.5l0.3-4.7
		L25.2,67.7z M105.9,45h-3.5l2,3.1c0.1,0.1,0,0.1-0.1,0.2c0,0.3-0.2,0.6-0.5,0.6H88.2v27.4c0,0.1-0.3,0.6-0.3,0.6h17.3
		c0,0,0.2,4.5-2,6.5c-3.2,2.9-7.9,2.5-7.9,2.5H53.2v-8.4l0.9-0.6c0,0-0.1-2.9,1.2-2.9s3.1,2.9,3.1,2.9h5.5c0,0,0.3-0.5,0.3-0.6V59.6
		c0-0.1-0.2,0.1-0.1,0L66.2,49H11.9c-0.3,0-0.5-0.4-0.5-0.7c0-0.3,0.2-0.7,0.5-0.7l2.3-3.1c-0.1-0.1-0.1-0.2-0.1-0.3
		c0-0.3,0.2-0.5,0.5-0.5l25,0c0,0,0,0,0,0l27.2-10l0-0.3c0-0.6,0.4-1,1-1c0.5,0,1.1,0.4,1.1,1l0.1,0.4l17.3,7.8V37h11v5h0.7
		c0.3,0,0.5,0.2,0.5,0.5c0,0.3-0.2,0.5-0.5,0.5h-9.7v1h17.7c0.3,0,0.5,0.2,0.5,0.5C106.4,44.7,106.2,45,105.9,45z M55.2,58v-6h1.2
		c0.1-1,0.5-1.4,1.6-1.6c0,0,1.3-0.4,1.5,1.6h1.7v6H55.2z"/>
</g>
</svg>
