<?xml version="1.0" encoding="utf-8"?>
<!-- Generator: Adobe Illustrator 16.0.0, SVG Export Plug-In . SVG Version: 6.00 Build 0)  -->
<!DOCTYPE svg PUBLIC "-//W3C//DTD SVG 1.1//EN" "http://www.w3.org/Graphics/SVG/1.1/DTD/svg11.dtd" [
	<!ENTITY ns_flows "http://ns.adobe.com/Flows/1.0/">
	<!ENTITY ns_extend "http://ns.adobe.com/Extensibility/1.0/">
	<!ENTITY ns_ai "http://ns.adobe.com/AdobeIllustrator/10.0/">
	<!ENTITY ns_graphs "http://ns.adobe.com/Graphs/1.0/">
]>
<svg version="1.1" id="Layer_1" xmlns:x="&ns_extend;" xmlns:i="&ns_ai;" xmlns:graph="&ns_graphs;"
	 xmlns="http://www.w3.org/2000/svg" xmlns:xlink="http://www.w3.org/1999/xlink" xmlns:a="http://ns.adobe.com/AdobeSVGViewerExtensions/3.0/"
	 x="0px" y="0px" width="72.9px" height="72.9px" viewBox="0 0 72.9 72.9" style="enable-background:new 0 0 72.9 72.9;"
	 xml:space="preserve">
<style type="text/css">
<![CDATA[
	.st0{fill:none;stroke:#E80707;stroke-miterlimit:10;}
	.st1{fill:none;stroke:#000000;stroke-linecap:round;stroke-linejoin:round;stroke-miterlimit:10;}
	.st2{fill:none;stroke:#FFFFFF;stroke-width:2;stroke-linecap:round;stroke-linejoin:round;stroke-miterlimit:10;}
	.st3{fill-rule:evenodd;clip-rule:evenodd;fill:#14274A;}
	.st4{fill:url(#SVGID_1_);}
	.st5{fill:url(#SVGID_2_);}
	.st6{fill:url(#SVGID_3_);}
	.st7{fill:url(#SVGID_4_);}
	.st8{fill:url(#SVGID_5_);}
	.st9{fill:url(#SVGID_6_);}
	.st10{fill:url(#SVGID_7_);}
	.st11{fill:url(#SVGID_8_);}
	.st12{fill:url(#SVGID_9_);}
	.st13{fill-rule:evenodd;clip-rule:evenodd;}
	.st14{fill:none;stroke:#FFFFFF;stroke-linecap:round;stroke-linejoin:round;stroke-miterlimit:10;stroke-dasharray:2,3;}
	.st15{fill:#FEFEFE;}
	.st16{fill:none;stroke:#FFFFFF;stroke-linecap:round;stroke-linejoin:round;stroke-miterlimit:10;}
	.st17{fill:#FFFFFF;}
	.st18{fill:none;stroke:#B92B00;stroke-width:2;stroke-linecap:round;stroke-linejoin:round;stroke-miterlimit:10;}
	.st19{fill-rule:evenodd;clip-rule:evenodd;fill:#FFFFFF;}
	.st20{stroke:#000000;stroke-miterlimit:10;}
	.st21{fill:none;stroke:#B92B00;stroke-miterlimit:10;}
	.st22{fill:none;stroke:#B92B00;stroke-width:0.5;stroke-linecap:round;stroke-linejoin:round;stroke-miterlimit:10;}
	.st23{fill:none;stroke:#B92B00;stroke-linecap:round;stroke-linejoin:round;stroke-miterlimit:10;}
	.st24{fill-rule:evenodd;clip-rule:evenodd;fill:#000001;}
]]>
</style>
<circle class="st16" cx="36.5" cy="36.5" r="36"/>
<circle class="st14" cx="36.5" cy="36.5" r="32.2"/>
<g>
	<path class="st16" d="M8.3,46.5l3.5,1.4c0,0,6.4-8.2,8.2-17.8c0,0,1-1.6-0.6-2.2c-1.6-0.6-9.7-4.2-9.7-4.2"/>
	<path class="st16" d="M20.2,28.8l4.7,1.7c0,0,0.6,0.4,0.5,1.3c-0.1,0.8-3.6,10.3-5,12.3c0,0-0.5,0.5-1.1,0.2
		c-0.6-0.3-4.3-1.8-4.3-1.8"/>
	<path class="st16" d="M25.4,31.6c0,0,0,0.2,1.4,0.3c1.4,0.1,8.5,0.5,8.5,0.5"/>
	<path class="st16" d="M21.4,42.5c0,0,1.8,1.7,2.6,2.2"/>
	<path class="st16" d="M46,34.2c0,0-5.4-2.1-6.6-2.6c-1.2-0.5-2.4,0-3,0.3c-0.6,0.3-3.7,1.4-4.2,1.5c-0.5,0.1-1,1.4-1.1,2
		C31,36,31,37.4,31,37.4l-0.8,2.2c0,0,1.3,2.4,3.9-0.2c0,0,1-1.6,1.3-2.2c0,0,1.6,0.1,2.3-0.3c0,0,0.1,5.7,7.2,5.6"/>
	<line class="st16" x1="50.1" y1="45.7" x2="47.9" y2="47.3"/>
	<path class="st16" d="M34.9,52.9c0,0,2,1.2,2.5,1.1c0.5,0,0.7,0.4,1.9-0.6"/>
	<path class="st16" d="M34.7,49.8c0,0,3.2,3.3,5,3.5c2.3,0.3,3-1.3,3-1.3"/>
	<path class="st16" d="M45.9,50.2c0,0.8-0.7,1.6-0.7,1.6c-3.4,1.6-7.7-4.3-7.7-4.3"/>
	<path class="st16" d="M39.5,44.7c0,0,3.8,4.9,6.7,5.3c0,0,1.8,0,2.2-1.9l-5.1-5.5"/>
	<path class="st16" d="M55.5,46.9c0,0-3.1,1.3-5,0c0,0-0.4-6.6-4.2-12.8l2.8-1.4"/>
	<path class="st16" d="M49.2,32.3c0,0,5.1,8.9,9.1,17.6c0,0-1.2-0.8-2.4-2.7"/>
	<line class="st16" x1="49.7" y1="31.9" x2="63.1" y2="24.9"/>
	<path class="st16" d="M59.1,50.2c0,0,1-1.5,5.2-3.1"/>
	<path class="st16" d="M24.1,47.4c0,0-1.6-1.9,1.3-3.4c0,0,1.4-0.5,2.2,1.6C27.7,45.5,26.3,49.1,24.1,47.4z"/>
	<path class="st16" d="M27.9,46.4c0,0,1.8-0.6,2.3,0.5c0.5,1,0.5,1.6-0.3,2.4c-0.8,0.8-2.1,1.9-3.3,0.6C25.3,48.7,26.7,47,27.9,46.4
		z"/>
	<path class="st16" d="M29,50.8c0,0,1.5-3,3.3-2.9c0,0,1.1,0.5,1.2,1.5c0,0-0.6,1.6-1.4,2.5C31.4,52.8,29.7,52.7,29,50.8z"/>
	<path class="st16" d="M35.5,53.5c0,0-1.3,1-2.7,0.6c-1.5-0.4-0.9-2.4,0.5-3.6c0,0,1.9-0.2,1.5,2.2"/>
	<path class="st16" d="M33.1,51.5c0,0,0.5,0.6,1.3,0.6"/>
	<path class="st16" d="M31,49.7c0,0-0.2,0.6,1,0.6"/>
	<path class="st16" d="M28,47.6c0,0-0.3,0.7,1.1,1.1"/>
	<path class="st16" d="M25.3,45.2c0,0,0,0.6,0.9,0.7"/>
	<path class="st16" d="M31.3,37.2c0,0,1.2,0.1,1.5,0.6c0.2,0.5-0.9,1.5-1.8,1.6"/>
</g>
<path class="st16" d="M19.5,23.4c0,0,5.3-10.5,18-10.3C48.9,13.4,54,23.6,54,23.6"/>
</svg>
