<?xml version="1.0" encoding="utf-8"?>
<!-- Generator: Adobe Illustrator 16.0.0, SVG Export Plug-In . SVG Version: 6.00 Build 0)  -->
<!DOCTYPE svg PUBLIC "-//W3C//DTD SVG 1.1//EN" "http://www.w3.org/Graphics/SVG/1.1/DTD/svg11.dtd" [
	<!ENTITY ns_flows "http://ns.adobe.com/Flows/1.0/">
	<!ENTITY ns_extend "http://ns.adobe.com/Extensibility/1.0/">
	<!ENTITY ns_ai "http://ns.adobe.com/AdobeIllustrator/10.0/">
	<!ENTITY ns_graphs "http://ns.adobe.com/Graphs/1.0/">
]>
<svg version="1.1" id="Layer_1" xmlns:x="&ns_extend;" xmlns:i="&ns_ai;" xmlns:graph="&ns_graphs;"
	 xmlns="http://www.w3.org/2000/svg" xmlns:xlink="http://www.w3.org/1999/xlink" xmlns:a="http://ns.adobe.com/AdobeSVGViewerExtensions/3.0/"
	 x="0px" y="0px" width="117.8px" height="117.8px" viewBox="0 0 117.8 117.8" style="enable-background:new 0 0 117.8 117.8;"
	 xml:space="preserve">
<style type="text/css">
<![CDATA[
	.st0{fill:none;stroke:#E80707;stroke-miterlimit:10;}
	.st1{fill:none;stroke:#000000;stroke-linecap:round;stroke-linejoin:round;stroke-miterlimit:10;}
	.st2{fill:none;stroke:#FFFFFF;stroke-width:2;stroke-linecap:round;stroke-linejoin:round;stroke-miterlimit:10;}
	.st3{fill:url(#SVGID_1_);}
	.st4{fill:url(#SVGID_2_);}
	.st5{fill:url(#SVGID_3_);}
	.st6{fill:url(#SVGID_4_);}
	.st7{fill:url(#SVGID_5_);}
	.st8{fill:url(#SVGID_6_);}
	.st9{fill:url(#SVGID_7_);}
	.st10{fill:url(#SVGID_8_);}
	.st11{fill:url(#SVGID_9_);}
	.st12{fill:#FEFEFE;}
	.st13{fill:none;stroke:#FFFFFF;stroke-linecap:round;stroke-linejoin:round;stroke-miterlimit:10;}
	.st14{fill:#FFFFFF;}
	.st15{fill:none;stroke:#B92B00;stroke-width:2;stroke-linecap:round;stroke-linejoin:round;stroke-miterlimit:10;}
	.st16{fill-rule:evenodd;clip-rule:evenodd;fill:#FFFFFF;}
	.st17{stroke:#000000;stroke-miterlimit:10;}
	.st18{fill:none;stroke:#B92B00;stroke-miterlimit:10;}
	.st19{fill:none;stroke:#B92B00;stroke-width:0.5;stroke-linecap:round;stroke-linejoin:round;stroke-miterlimit:10;}
	.st20{fill:none;stroke:#B92B00;stroke-linecap:round;stroke-linejoin:round;stroke-miterlimit:10;}
]]>
</style>
<g>
	<linearGradient id="SVGID_1_" gradientUnits="userSpaceOnUse" x1="20.6807" y1="20.6807" x2="97.1532" y2="97.1532">
		<stop  offset="0" style="stop-color:#00D2D0"/>
		<stop  offset="1" style="stop-color:#0078A5"/>
		<a:midPointStop  offset="0" style="stop-color:#00D2D0"/>
		<a:midPointStop  offset="0.5" style="stop-color:#00D2D0"/>
		<a:midPointStop  offset="1" style="stop-color:#0078A5"/>
	</linearGradient>
	<circle class="st3" cx="58.9" cy="58.9" r="54.1"/>
	<g>
		<rect x="27.2" y="85" class="st14" width="46" height="3"/>
		<path class="st14" d="M65.2,37.2c0-5.6-5-5.3-5-5.3H41c-4.5,0-5.8,5-5.8,5v15.1c1,5.4,6,5.9,6,5.9h3c1-10,8-15.4,8-15.4
			c-4.6,1.4-8.1,9.1-8.1,9.1s-1.8-8.4,4.9-14.1c5-4.4,10.9-2.6,11.8-1.7s-0.3,1.9-0.3,1.9c-2.8,8.4-6.6,11.7-9.8,13.3s-4,2.5-4,2.5
			c-1.5,1.8-0.5,4.4-0.5,4.4h13.4c5.9-1,5.6-6,5.6-6V37.2z"/>
		<path class="st14" d="M78.9,36.6c0,0-0.1,0-0.1,0c-0.4,0-0.9,0.2-1.2,1.2c-0.2,0.8,0.3,1.3,0.6,1.5c0.6,0.4,1.6,0.7,2.4,0.2
			c0.3-0.2,0.5-0.4,0.7-0.7c0-0.1,0-0.1,0-0.2C81.1,37.8,80,36.7,78.9,36.6z"/>
		<path class="st14" d="M58.9,0C26.4,0,0,26.4,0,58.9c0,32.5,26.4,58.9,58.9,58.9c32.5,0,58.9-26.4,58.9-58.9
			C117.8,26.4,91.5,0,58.9,0z M74.2,88.5c0,0.3-0.2,0.5-0.5,0.5h-47c-0.3,0-0.5-0.2-0.5-0.5v-4c0-0.3,0.2-0.5,0.5-0.5h47
			c0.3,0,0.5,0.2,0.5,0.5V88.5z M82.2,80.8c-0.3,0.1-0.6,0.1-1,0.1c-0.9,0-1.8-0.3-2.5-0.8c-1.9-1.3-2.5-4-2.6-5
			c-0.4-2.4-0.7-3.9-1.8-6c-0.8-1.6-5.1-1.5-5.1-1.5c0,4.9,0,8.4,0,8.4s2,0.1,2,2.3s0,4.8,0,4.8h-43v-5c0,0,0-1.8,2-1.9V34
			c0,0,0.8-4,7-5h27c0,0,5,0.9,5,5.1c0,2.8,0,20.5,0,32c1,0,5.2-0.1,6.4,2.3c1.1,2.3,1.6,4,1.9,6.5c0.1,0.9,0.6,3,2,4.1
			c0.7,0.5,1.4,0.6,2.3,0.5c3.1-0.6,6.5-5.3,6.6-11.5c0.1-6.1-1.1-10.8-4.3-16.4c-2.3-4-2.8-8.1-2.9-10.8c0,0-0.1,0-0.1,0.1
			c-1.2,0.7-2.9,0.6-4-0.3c-1-0.8-1.4-1.9-1.1-3.1c0.4-1.5,1.4-2.4,2.8-2.3c1,0.1,2,0.6,2.7,1.4c0-0.4,0-0.8-0.1-1.3
			c0-0.1,0-0.1,0-0.2c0.1-1.1,0.1-4.2-1.4-5.3c-0.3-0.2-0.4-0.7-0.2-1c0.2-0.3,0.7-0.4,1-0.2c2.4,1.7,2.1,5.9,2.1,6.6
			c0.2,1.8,0,3-0.3,3.9c0,0.2,0,0.5,0.1,0.8c0.2,2.5,0.4,6.8,2.8,10.9c3.3,5.8,4.6,10.7,4.5,17.1C90,75,85.9,80.2,82.2,80.8z"/>
	</g>
</g>
</svg>
